# xmcd
# Track frame offsets:
# 150
# 18337
# 33599
# 50886
# 66973
# 83585
# 101472
# 113359
# 129296
# 147183
# 165070
# 183857
# 200019
# 219556
# 237143
# 250080
# 267217
# 281054
#
# Disc length: 4008 seconds
# Revision: 3
# Processed by: cddbd v1.5.2PL0 Copyright (c) Steve Scherf et al.
# Submitted via: VisiTrax 2.11.2.271 - For more info visit www.synapsa.com
#
DISCID=f10fa612
DTITLE=Various Artist - Promo Only Country Radio - July 2009
DYEAR=2009
DGENRE=Country
TTITLE0=Rascal Flatts - Summer Nights (Album Version)
TTITLE1=Jason Aldean - Big Green Tractor
TTITLE2=Gretchen Wilson - If I Could Do It All Again (Single Edit)
TTITLE3=Jimmy Wayne - I'll Be That
TTITLE4=Trace Adkins - All I Ask For Anymore
TTITLE5=Richie McDonald - Six-Foot Teddy Bear
TTITLE6=Rodney Atkins - 15 Minutes (Album Version)
TTITLE7=Matt Stillwell - Sweet Sun Angel
TTITLE8=Luke Bryan - Do I
TTITLE9=Due West - I Get That All The Time
TTITLE10=Parks - As Long As You're Goin' My Way (Single Version)
TTITLE11=Pat Green - What I'm For (Album Version)
TTITLE12=Martina McBride - I Just Call You Mine (Album Version)
TTITLE13=Mark Wills - Entertaining Angels
TTITLE14=Ben Kweller - Fight (Album Version)
TTITLE15=Kate Russell - Better Days
TTITLE16=Amanda Shires - Upon Hearing Violins (Album Version)
TTITLE17=Lovell Sisters - Time To Grow (Album Version)
EXTD=YEAR: 2009
EXTT0=
EXTT1=
EXTT2=
EXTT3=
EXTT4=
EXTT5=
EXTT6=
EXTT7=
EXTT8=
EXTT9=
EXTT10=
EXTT11=
EXTT12=
EXTT13=
EXTT14=
EXTT15=
EXTT16=
EXTT17=
PLAYORDER=
